# xmcd
#
# Track frame offsets:
#  150
#  20286
#  47876
#  71052
#  93048
#  98105
#  117115
#  119935
#  137775
#  168858
#  186671
#  203375
#  220592
#  230707
#  243625
#  266900
#  287724
#  306682
#  309467
#  329895
#
# Disc length: 4705 seconds
#
# Revision: 0
# Processed by: cddbd v1.5.1PL2 Copyright (c) Steve Scherf et al.
# Submitted via: Collectorz.com_Music_Collector 6.11
#
DISCID=3b125f14
DTITLE=Bruce Springsteen - Love, Tears and Mystery [CD1)
DYEAR=1900
DGENRE=Acoustic - Alt Country
TTITLE0=My Beautiful Reward (2005-06-20)
TTITLE1=Reason To Believe (2005-06-25)
TTITLE2=Devils And Dust (2005-06-20)
TTITLE3=Youngstown (2005-05-15)
TTITLE4=Intro_ This Is For You, Ev (2005-07-16)
TTITLE5=Long Time Comin (2005-11-22)
TTITLE6=Outro_ Too Bad (2005-08-13)
TTITLE7=Intro_ Take Off Your Pants
TTITLE8=Incident On 57th Street (2005-11-08)
TTITLE9=Back In Your Arms (2005-08-07)
TTITLE10=State Trooper (2005-08-07)
TTITLE11=All The Way Home (2005-11-22)
TTITLE12=Intro_ Whats It Like
TTITLE13=Aint Got You (2005-11-17)
TTITLE14=Cynthia (2005-08-03)
TTITLE15=One Step Up (2005-08-03)
TTITLE16=Reno (2005-06-25)
TTITLE17=Intro
TTITLE18=Valentines Day (2005-07-31)
TTITLE19=Real World (2005-06-20)
EXTD=
EXTT0=
EXTT1=
EXTT2=
EXTT3=
EXTT4=
EXTT5=
EXTT6=
EXTT7=
EXTT8=
EXTT9=
EXTT10=
EXTT11=
EXTT12=
EXTT13=
EXTT14=
EXTT15=
EXTT16=
EXTT17=
EXTT18=
EXTT19=
PLAYORDER=
